<?xml version="1.0" encoding="UTF-8" standalone="no"?>
<!-- Created with Inkscape (http://www.inkscape.org/) -->

<svg
   width="31.999998"
   height="32"
   viewBox="0 0 8.466666 8.4666668"
   version="1.1"
   id="svg1336"
   xmlns="http://www.w3.org/2000/svg"
   xmlns:svg="http://www.w3.org/2000/svg">
  <defs
     id="defs1333" />
  <g
     id="layer1">
    <path
       d="M 2.4033144,3.0971176 Q 2.1638547,3.0213754 2.0394656,2.7986778 1.9184343,2.5654647 1.9941765,2.326057 2.0699187,2.086597 2.3030537,1.9655136 2.5360064,1.8444823 2.7756484,1.9202245 l 0.4165821,0.1317029 q 0.08329,0.026289 0.1129626,-0.067413 L 3.7138365,0.69309685 Q 3.7895787,0.45363706 4.0226878,0.33255367 4.2559007,0.2115223 4.4953086,0.28726446 L 4.995207,0.44551618 q 0.2394599,0.0757416 0.3605433,0.30887728 0.1210318,0.23321307 0.045289,0.47262084 L 4.992396,2.5184056 Q 4.962724,2.6121076 5.056425,2.6417799 L 6.0770446,2.9647384 Q 6.3165045,3.04048 6.4272025,3.2703099 6.5482342,3.5032627 6.4724913,3.7429047 6.3967497,3.9823646 6.1636402,4.103474 5.9442221,4.2174781 5.7047363,4.1414757 L 4.6840914,3.8185164 Q 4.5903891,3.7888444 4.5607171,3.8825454 L 3.9971799,5.6634505 Q 3.7894747,6.3195704 3.8480382,6.5328718 3.9170129,6.7494269 4.3335691,6.881286 4.5522063,6.9505212 4.6838312,6.9692614 4.9227704,7.0106456 5.05705,7.201954 5.1913559,7.3932615 5.1221211,7.6120549 l -0.026288,0.08329 Q 5.013583,7.9557057 4.784196,8.1008393 4.5548873,8.246077 4.2847141,8.1948012 3.9486634,8.1344157 3.5216701,7.9990688 2.4593793,7.6629141 2.1636724,7.07668 1.8816825,6.4833401 2.2539905,5.3064731 L 2.8735407,3.3485244 Q 2.9032128,3.254822 2.8199224,3.2285342 Z"
       id="path5154"
       style="font-weight:bold;font-size:12.7px;font-family:'Nimbus Sans';-inkscape-font-specification:'Nimbus Sans Bold';fill:#981d28;fill-opacity:1;stroke:#fffbeb;stroke-width:0.227574;stroke-dasharray:none;stroke-opacity:1;paint-order:stroke fill markers" />
  </g>
</svg>
