<?xml version="1.0" encoding="UTF-8" standalone="no"?>
<!-- Created with Inkscape (http://www.inkscape.org/) -->

<svg
   width="90.093796mm"
   height="12.446mm"
   viewBox="0 0 90.093796 12.446"
   version="1.1"
   id="svg5"
   xml:space="preserve"
   inkscape:export-filename="logo.svg"
   inkscape:export-xdpi="96"
   inkscape:export-ydpi="96"
   xmlns:inkscape="http://www.inkscape.org/namespaces/inkscape"
   xmlns:sodipodi="http://sodipodi.sourceforge.net/DTD/sodipodi-0.dtd"
   xmlns="http://www.w3.org/2000/svg"
   xmlns:svg="http://www.w3.org/2000/svg"><sodipodi:namedview
     id="namedview7"
     pagecolor="#ffffff"
     bordercolor="#000000"
     borderopacity="0.25"
     inkscape:showpageshadow="2"
     inkscape:pageopacity="0.0"
     inkscape:pagecheckerboard="0"
     inkscape:deskcolor="#d1d1d1"
     inkscape:document-units="mm"
     showgrid="false" /><defs
     id="defs2" /><g
     inkscape:label="Layer 1"
     inkscape:groupmode="layer"
     id="layer1"
     transform="translate(-9.2911091,-121.94029)"><g
       aria-label="beyondtipping"
       id="text236"
       style="font-weight:bold;font-size:12.7px;font-family:'Nimbus Sans';-inkscape-font-specification:'Nimbus Sans Bold';fill:#fffbeb;stroke-width:0.79375"
       inkscape:export-filename="logo.svg"
       inkscape:export-xdpi="96"
       inkscape:export-ydpi="96"><path
         d="m 11.297709,127.37589 v 1.5748 q 0,0.4318 0.381,0.7747 0.381,0.3429 0.889,0.3429 0.5842,0 0.9271,-0.4699 0.3429,-0.4699 0.3429,-1.4351 0,-1.905 -1.27,-1.905 -0.508,0 -0.889,0.3429 -0.381,0.3429 -0.381,0.7747 z m -1.2954,4.0894 q -0.2921,0 -0.508,-0.2159 -0.2031999,-0.2159 -0.2031999,-0.508 v -8.0772 q 0,-0.2921 0.2031999,-0.508 0.2159,-0.2159 0.508,-0.2159 h 0.6223 q 0.2921,0 0.4953,0.2159 0.2159,0.2159 0.2159,0.508 v 2.8448 q 0,0.0127 0.0127,0.0127 0.0127,0 0.0254,-0.0127 0.8509,-0.7747 1.8923,-0.7747 1.1811,0 1.8796,0.889 0.6985,0.889 0.6985,2.54 0,1.6129 -0.7239,2.5273 -0.7239,0.9017 -1.8542,0.9017 -1.2065,0 -2.0066,-0.9398 l -0.0254,-0.0254 q -0.0127,0 -0.0127,0.0127 v 0.1016 q -0.0127,0.3048 -0.2286,0.5207 -0.2032,0.2032 -0.508,0.2032 z"
         style="font-family:'Rounded Mplus 1c';-inkscape-font-specification:'Rounded Mplus 1c Bold'"
         id="path5142" /><path
         d="m 20.098801,126.11859 q -0.5715,0 -0.8636,0.3048 -0.2921,0.2921 -0.3683,1.016 0,0.1016 0.0889,0.1016 h 2.1463 q 0.1143,0 0.1143,-0.1143 -0.0508,-1.3081 -1.1176,-1.3081 z m 0.3175,5.4737 q -1.7272,0 -2.667,-0.8763 -0.9271,-0.8763 -0.9271,-2.5527 0,-1.6637 0.8255,-2.54 0.8382,-0.889 2.413,-0.889 3.0226,0 3.0734,3.302 0,0.3048 -0.2413,0.5207 -0.2286,0.2032 -0.5334,0.2032 h -3.3909 q -0.127,0 -0.1016,0.1143 0.1016,0.6985 0.5334,1.0033 0.4445,0.2921 1.3208,0.2921 0.5715,0 1.2319,-0.1651 0.2667,-0.0635 0.4699,0.1016 0.2159,0.1651 0.2159,0.4318 v 0.0254 q 0,0.3175 -0.2032,0.5842 -0.1905,0.254 -0.4953,0.3048 -0.7366,0.1397 -1.524,0.1397 z"
         style="font-family:'Rounded Mplus 1c';-inkscape-font-specification:'Rounded Mplus 1c Bold'"
         id="path5144" /><path
         d="m 25.877295,131.36369 -2.1463,-5.8293 q -0.1016,-0.2413 0.0508,-0.4572 0.1524,-0.2159 0.4191,-0.2159 h 0.8001 q 0.3048,0 0.5588,0.2032 0.254,0.1905 0.3302,0.4953 l 0.9652,3.9497 q 0,0.0127 0.0127,0.0127 0.0127,0 0.0127,-0.0127 l 1.1557,-3.9624 q 0.0762,-0.3048 0.3302,-0.4953 0.2667,-0.1905 0.5969,-0.1905 h 0.6985 q 0.254,0 0.4064,0.2159 0.1524,0.2159 0.0635,0.4572 l -2.9972,8.0518 q -0.1143,0.3048 -0.381,0.4826 -0.2667,0.1905 -0.5842,0.1905 h -0.6985 q -0.2667,0 -0.4064,-0.2159 -0.1397,-0.2032 -0.0381,-0.4445 l 0.8509,-2.032 q 0.0127,-0.0508 0.0127,-0.1016 0,-0.0508 -0.0127,-0.1016 z"
         style="font-family:'Rounded Mplus 1c';-inkscape-font-specification:'Rounded Mplus 1c Bold'"
         id="path5146" /><path
         d="m 34.74191,126.63929 q -0.3048,-0.4699 -0.9398,-0.4699 -0.635,0 -0.9525,0.4699 -0.3048,0.4699 -0.3048,1.524 0,1.0541 0.3048,1.524 0.3175,0.4699 0.9525,0.4699 0.635,0 0.9398,-0.4699 0.3175,-0.4699 0.3175,-1.524 0,-1.0541 -0.3175,-1.524 z m 1.5113,4.0513 q -0.8763,0.9017 -2.4511,0.9017 -1.5748,0 -2.4511,-0.9017 -0.8763,-0.9017 -0.8763,-2.5273 0,-1.6256 0.8763,-2.5273 0.8763,-0.9017 2.4511,-0.9017 1.5748,0 2.4511,0.9017 0.8763,0.9017 0.8763,2.5273 0,1.6256 -0.8763,2.5273 z"
         style="font-family:'Rounded Mplus 1c';-inkscape-font-specification:'Rounded Mplus 1c Bold'"
         id="path5148" /><path
         d="m 39.072617,131.46529 q -0.2921,0 -0.508,-0.2159 -0.2032,-0.2159 -0.2032,-0.508 v -5.1562 q 0,-0.2921 0.2032,-0.508 0.2159,-0.2159 0.508,-0.2159 h 0.5207 q 0.3048,0 0.508,0.2159 0.2159,0.2032 0.2286,0.508 l 0.0127,0.1016 q 0,0.0127 0.0127,0.0127 l 0.0254,-0.0254 q 0.8255,-0.9398 1.9812,-0.9398 1.1557,0 1.6637,0.6604 0.508,0.6477 0.508,2.2225 v 3.1242 q 0,0.2921 -0.2159,0.508 -0.2032,0.2159 -0.4953,0.2159 h -0.5588 q -0.2921,0 -0.508,-0.2159 -0.2159,-0.2159 -0.2159,-0.508 v -3.0607 q 0,-0.762 -0.2032,-1.0414 -0.2032,-0.2921 -0.7366,-0.2921 -0.4445,0 -0.8255,0.3683 -0.3683,0.3556 -0.3683,0.7747 v 3.2512 q 0,0.2921 -0.2159,0.508 -0.2032,0.2159 -0.4953,0.2159 z"
         style="font-family:'Rounded Mplus 1c';-inkscape-font-specification:'Rounded Mplus 1c Bold'"
         id="path5150" /><path
         d="m 49.042128,126.25829 q -1.27,0 -1.27,1.905 0,0.9652 0.3429,1.4351 0.3429,0.4699 0.9271,0.4699 0.508,0 0.889,-0.3429 0.381,-0.3429 0.381,-0.7747 v -1.5748 q 0,-0.4318 -0.381,-0.7747 -0.381,-0.3429 -0.889,-0.3429 z m -0.6985,5.334 q -1.1303,0 -1.8542,-0.9017 -0.7239,-0.9144 -0.7239,-2.5273 0,-1.651 0.6985,-2.54 0.6985,-0.889 1.8796,-0.889 1.0414,0 1.8923,0.7747 0.0127,0.0127 0.0254,0.0127 0.0127,0 0.0127,-0.0127 v -2.8448 q 0,-0.2921 0.2032,-0.508 0.2159,-0.2159 0.508,-0.2159 h 0.6223 q 0.2921,0 0.4953,0.2159 0.2159,0.2159 0.2159,0.508 v 8.0772 q 0,0.2921 -0.2159,0.508 -0.2032,0.2159 -0.4953,0.2159 h -0.4826 q -0.3048,0 -0.5207,-0.2032 -0.2032,-0.2159 -0.2159,-0.5207 v -0.1016 q 0,-0.0127 -0.0127,-0.0127 l -0.0254,0.0254 q -0.8001,0.9398 -2.0066,0.9398 z"
         style="font-family:'Rounded Mplus 1c';-inkscape-font-specification:'Rounded Mplus 1c Bold'"
         id="path5152" /><path
         d="m 54.738584,125.97284 q -0.27849,-0.0881 -0.423029,-0.34699 -0.140707,-0.27097 -0.05259,-0.54946 0.08812,-0.27849 0.359096,-0.4192 0.270974,-0.14071 0.549464,-0.0526 l 0.484332,0.15325 q 0.09687,0.0307 0.131348,-0.0783 l 0.475092,-1.50143 q 0.08812,-0.27849 0.359096,-0.4192 0.270974,-0.1407 0.549465,-0.0526 l 0.581197,0.1839 q 0.278491,0.0881 0.419198,0.3591 0.140707,0.27097 0.05259,0.54947 l -0.475092,1.50142 q -0.03448,0.10898 0.07449,0.14346 l 1.186612,0.37547 q 0.278491,0.0881 0.40709,0.35527 0.140707,0.27097 0.05259,0.54946 -0.08812,0.27849 -0.359096,0.4192 -0.255035,0.13243 -0.533525,0.0443 L 57.3903,126.81189 q -0.108974,-0.0345 -0.143457,0.0745 l -0.655166,2.07051 q -0.241377,0.76283 -0.17332,1.01081 0.08017,0.25182 0.564498,0.40507 0.254274,0.0805 0.407236,0.10222 0.277876,0.048 0.433909,0.27051 0.156033,0.22254 0.07557,0.47681 l -0.03065,0.0969 q -0.09578,0.30271 -0.362314,0.47146 -0.266528,0.16876 -0.58073,0.1093 -0.390682,-0.0703 -0.887121,-0.22743 -1.235045,-0.3908 -1.578844,-1.07237 -0.327859,-0.68985 0.105088,-2.05809 l 0.720299,-2.27636 q 0.03448,-0.10897 -0.06238,-0.13962 z"
         id="path5154"
         style="fill:#981d28;fill-opacity:1;stroke:#fffbeb;stroke-width:0.264583;stroke-dasharray:none;stroke-opacity:1;paint-order:stroke fill markers" /><path
         d="m 61.919926,131.46529 q -0.2921,0 -0.508,-0.2159 -0.2159,-0.2159 -0.2159,-0.508 v -5.1562 q 0,-0.2921 0.2159,-0.508 0.2159,-0.2159 0.508,-0.2159 h 0.7112 q 0.2921,0 0.508,0.2159 0.2159,0.2159 0.2159,0.508 v 5.1562 q 0,0.2921 -0.2159,0.508 -0.2159,0.2159 -0.508,0.2159 z m 0,-7.874 q -0.2921,0 -0.508,-0.2159 -0.2159,-0.2159 -0.2159,-0.508 v -0.2032 q 0,-0.2921 0.2159,-0.508 0.2159,-0.2159 0.508,-0.2159 h 0.7112 q 0.2921,0 0.508,0.2159 0.2159,0.2159 0.2159,0.508 v 0.2032 q 0,0.2921 -0.2159,0.508 -0.2159,0.2159 -0.508,0.2159 z"
         style="font-family:'Rounded Mplus 1c';-inkscape-font-specification:'Rounded Mplus 1c Bold'"
         id="path5156" /><path
         d="m 67.355516,127.37589 v 1.5748 q 0,0.4191 0.381,0.7747 0.3937,0.3429 0.889,0.3429 0.5842,0 0.9271,-0.4699 0.3429,-0.4826 0.3429,-1.4351 0,-1.905 -1.27,-1.905 -0.4953,0 -0.889,0.3556 -0.381,0.3429 -0.381,0.762 z m -1.2827,6.8834 q -0.2921,0 -0.508,-0.2159 -0.2159,-0.2159 -0.2159,-0.508 v -7.9502 q 0,-0.2921 0.2159,-0.508 0.2159,-0.2159 0.508,-0.2159 h 0.508 q 0.3048,0 0.5207,0.2159 0.2159,0.2032 0.2286,0.508 v 0.1016 q 0,0.0127 0.0127,0.0127 l 0.0254,-0.0254 q 0.8128,-0.9398 1.9558,-0.9398 1.1811,0 1.8796,0.889 0.7112,0.889 0.7112,2.54 0,1.6002 -0.7366,2.5146 -0.7239,0.9144 -1.8542,0.9144 -1.0541,0 -1.8796,-0.7747 -0.0127,-0.0127 -0.0254,-0.0127 -0.0127,0 -0.0127,0.0127 v 2.7178 q 0,0.2921 -0.2159,0.508 -0.2159,0.2159 -0.508,0.2159 z"
         style="font-family:'Rounded Mplus 1c';-inkscape-font-specification:'Rounded Mplus 1c Bold'"
         id="path5158" /><path
         d="m 75.21681,127.37589 v 1.5748 q 0,0.4191 0.381,0.7747 0.3937,0.3429 0.889,0.3429 0.5842,0 0.9271,-0.4699 0.3429,-0.4826 0.3429,-1.4351 0,-1.905 -1.27,-1.905 -0.4953,0 -0.889,0.3556 -0.381,0.3429 -0.381,0.762 z m -1.2827,6.8834 q -0.2921,0 -0.508,-0.2159 -0.2159,-0.2159 -0.2159,-0.508 v -7.9502 q 0,-0.2921 0.2159,-0.508 0.2159,-0.2159 0.508,-0.2159 h 0.508 q 0.3048,0 0.5207,0.2159 0.2159,0.2032 0.2286,0.508 v 0.1016 q 0,0.0127 0.0127,0.0127 l 0.0254,-0.0254 q 0.8128,-0.9398 1.9558,-0.9398 1.1811,0 1.8796,0.889 0.7112,0.889 0.7112,2.54 0,1.6002 -0.7366,2.5146 -0.7239,0.9144 -1.8542,0.9144 -1.0541,0 -1.8796,-0.7747 -0.0127,-0.0127 -0.0254,-0.0127 -0.0127,0 -0.0127,0.0127 v 2.7178 q 0,0.2921 -0.2159,0.508 -0.2159,0.2159 -0.508,0.2159 z"
         style="font-family:'Rounded Mplus 1c';-inkscape-font-specification:'Rounded Mplus 1c Bold'"
         id="path5160" /><path
         d="m 82.112904,131.46529 q -0.2921,0 -0.508,-0.2159 -0.2159,-0.2159 -0.2159,-0.508 v -5.1562 q 0,-0.2921 0.2159,-0.508 0.2159,-0.2159 0.508,-0.2159 h 0.7112 q 0.2921,0 0.508,0.2159 0.2159,0.2159 0.2159,0.508 v 5.1562 q 0,0.2921 -0.2159,0.508 -0.2159,0.2159 -0.508,0.2159 z m 0,-7.874 q -0.2921,0 -0.508,-0.2159 -0.2159,-0.2159 -0.2159,-0.508 v -0.2032 q 0,-0.2921 0.2159,-0.508 0.2159,-0.2159 0.508,-0.2159 h 0.7112 q 0.2921,0 0.508,0.2159 0.2159,0.2159 0.2159,0.508 v 0.2032 q 0,0.2921 -0.2159,0.508 -0.2159,0.2159 -0.508,0.2159 z"
         style="font-family:'Rounded Mplus 1c';-inkscape-font-specification:'Rounded Mplus 1c Bold'"
         id="path5162" /><path
         d="m 86.253094,131.46529 q -0.2921,0 -0.508,-0.2159 -0.2032,-0.2159 -0.2032,-0.508 v -5.1562 q 0,-0.2921 0.2032,-0.508 0.2159,-0.2159 0.508,-0.2159 h 0.5207 q 0.3048,0 0.508,0.2159 0.2159,0.2032 0.2286,0.508 l 0.0127,0.1016 q 0,0.0127 0.0127,0.0127 l 0.0254,-0.0254 q 0.8255,-0.9398 1.9812,-0.9398 1.1557,0 1.6637,0.6604 0.508,0.6477 0.508,2.2225 v 3.1242 q 0,0.2921 -0.2159,0.508 -0.2032,0.2159 -0.4953,0.2159 h -0.5588 q -0.2921,0 -0.508,-0.2159 -0.2159,-0.2159 -0.2159,-0.508 v -3.0607 q 0,-0.762 -0.2032,-1.0414 -0.2032,-0.2921 -0.7366,-0.2921 -0.4445,0 -0.8255,0.3683 -0.3683,0.3556 -0.3683,0.7747 v 3.2512 q 0,0.2921 -0.2159,0.508 -0.2032,0.2159 -0.4953,0.2159 z"
         style="font-family:'Rounded Mplus 1c';-inkscape-font-specification:'Rounded Mplus 1c Bold'"
         id="path5164" /><path
         d="m 96.159105,126.25829 q -1.2065,0 -1.2065,1.778 0,0.889 0.3175,1.3335 0.3302,0.4445 0.889,0.4445 0.4953,0 0.8509,-0.3302 0.3556,-0.3429 0.3556,-0.7874 v -1.2319 q 0,-0.508 -0.3556,-0.8509 -0.3556,-0.3556 -0.8509,-0.3556 z m -0.6731,5.08 q -1.1049,0 -1.8288,-0.8763 -0.7112,-0.889 -0.7112,-2.4257 0,-1.5748 0.6858,-2.4384 0.6858,-0.8636 1.8542,-0.8636 1.1176,0 1.9177,0.9398 l 0.0254,0.0254 q 0.0127,0 0.0127,-0.0127 v -0.1016 q 0.0127,-0.3048 0.2286,-0.508 0.2159,-0.2159 0.5207,-0.2159 h 0.4699 q 0.2921,0 0.508,0.2159 0.2159,0.2159 0.2159,0.508 v 5.3086 q 0,1.7145 -0.9525,2.6035 -0.9398,0.889 -2.7305,0.889 -0.762,0 -1.3716,-0.1016 -0.3048,-0.0508 -0.508,-0.3048 -0.2032,-0.254 -0.2032,-0.5715 v -0.254 q 0,-0.254 0.2159,-0.4064 0.2159,-0.1524 0.4699,-0.0889 0.6858,0.1651 1.3081,0.1651 0.9144,0 1.3335,-0.4445 0.4191,-0.4318 0.4191,-1.4605 v -0.3556 q 0,-0.0127 -0.0127,-0.0127 -0.0127,0 -0.0254,0.0127 -0.7239,0.7747 -1.8415,0.7747 z"
         style="font-family:'Rounded Mplus 1c';-inkscape-font-specification:'Rounded Mplus 1c Bold'"
         id="path5166" /></g></g></svg>
